# xmcd
#
# Track frame offsets: 
#        182
#        10842
#        22355
#        35685
#        48515
#        60832
#        73837
#        84705
#        95330
#        104832
#        118307
#        130610
#        144315
#        161197
#        174632
#        185607
#
# Disc length: 2655 seconds
#
# Revision: 3
# Processed by: cddbd v1.5.2PL0 Copyright (c) Steve Scherf et al.
# Submitted via: ExactAudioCopyFreeDBPlugin 1.0
#
DISCID=ea0a5d10
DTITLE=Various Artist - Smooth Grooves:  The 60's [Rhino]
DYEAR=1997
DGENRE=Rhythm and Blues
TTITLE0=Carla Thomas - Gee Whiz (Look at His Eyes)
TTITLE1=Otis Redding - These Arms of Mine
TTITLE2=Ben E. King - Stand By Me
TTITLE3=Solomon Burke - Just Out of Reach (Of My Two Open Arms)
TTITLE4=Kelly Lester - Love Letters
TTITLE5=Betty Everett and Jerry Butler - Let It Be Me
TTITLE6=James Brown - Prisoner of Love
TTITLE7=Bobby Bland - I'll Take Care of You
TTITLE8=Gladys Knight and The Pips - Every Beat of My Heart
TTITLE9=Falcons - I Found a Love
TTITLE10=Barbara Lewis - Hello Stranger
TTITLE11=William Bell - You Don't Miss Your Water
TTITLE12=Gloria Lynne - I Wish You Love
TTITLE13=Jerry Butler - Need to Belong
TTITLE14=Barbara Lynn - You'll Lose a Good Thing
TTITLE15=Etta James - At Last
EXTD=
EXTT0=
EXTT1=
EXTT2=
EXTT3=
EXTT4=
EXTT5=
EXTT6=
EXTT7=
EXTT8=
EXTT9=
EXTT10=
EXTT11=
EXTT12=
EXTT13=
EXTT14=
EXTT15=
PLAYORDER=
